<?xml version="1.0" encoding="UTF-8" standalone="no"?>
<!-- Generator: Adobe Illustrator 17.0.0, SVG Export Plug-In . SVG Version: 6.00 Build 0)  -->

<svg
   xmlns:dc="http://purl.org/dc/elements/1.1/"
   xmlns:cc="http://creativecommons.org/ns#"
   xmlns:rdf="http://www.w3.org/1999/02/22-rdf-syntax-ns#"
   xmlns:svg="http://www.w3.org/2000/svg"
   xmlns="http://www.w3.org/2000/svg"
   xmlns:sodipodi="http://sodipodi.sourceforge.net/DTD/sodipodi-0.dtd"
   xmlns:inkscape="http://www.inkscape.org/namespaces/inkscape"
   version="1.1"
   id="Warstwa_1"
   x="0px"
   y="0px"
   width="587.924px"
   height="200px"
   viewBox="0 0 587.924 200"
   enable-background="new 0 0 587.924 200"
   xml:space="preserve"
   sodipodi:docname="logo.svg"
   inkscape:version="0.92.4 (5da689c313, 2019-01-14)"><metadata
   id="metadata33"><rdf:RDF><cc:Work
       rdf:about=""><dc:format>image/svg+xml</dc:format><dc:type
         rdf:resource="http://purl.org/dc/dcmitype/StillImage" /><dc:title></dc:title></cc:Work></rdf:RDF></metadata><defs
   id="defs31" /><sodipodi:namedview
   pagecolor="#ffffff"
   bordercolor="#666666"
   borderopacity="1"
   objecttolerance="10"
   gridtolerance="10"
   guidetolerance="10"
   inkscape:pageopacity="0"
   inkscape:pageshadow="2"
   inkscape:window-width="1920"
   inkscape:window-height="986"
   id="namedview29"
   showgrid="true"
   inkscape:zoom="1.7427383"
   inkscape:cx="351.4317"
   inkscape:cy="0.61975784"
   inkscape:window-x="-11"
   inkscape:window-y="-11"
   inkscape:window-maximized="1"
   inkscape:current-layer="Warstwa_1"
   inkscape:snap-text-baseline="true"><inkscape:grid
     type="xygrid"
     id="grid24" /></sodipodi:namedview>

<g
   id="Warstwa_3">
	<path
   d="M 86.603,0 0,50 v 100 l 86.603,50 86.603,-50 V 50 Z m 0,133.333 28.868,-16.667 28.867,16.667 -57.735,33.333 -57.735,-33.333 V 66.666 L 86.603,33.333 144.338,66.666 115.47,83.333 86.603,66.666 57.735,83.333 v 33.333 z"
   id="path13"
   inkscape:connector-curvature="0"
   style="fill:#ffffff" />
	<polygon
   stroke-miterlimit="10"
   enable-background="new    "
   points="86.603,100 86.603,0 0,50 "
   id="polygon15"
   style="opacity:0.03999999;stroke:#ffffff;stroke-miterlimit:10" />
	<polygon
   stroke-miterlimit="10"
   enable-background="new    "
   points="86.603,200 86.603,100 0,150 "
   id="polygon17"
   style="opacity:0.03999999;stroke:#ffffff;stroke-miterlimit:10" />
	<polygon
   stroke-miterlimit="10"
   enable-background="new    "
   points="173.205,150 173.205,50 86.603,100 "
   id="polygon19"
   style="opacity:0.07999998;stroke:#ffffff;stroke-miterlimit:10" />
	<polygon
   points="0,50 0,150 86.603,100 "
   id="polygon21"
   style="fill-opacity:0" />
	<polygon
   stroke-miterlimit="10"
   enable-background="new    "
   points="86.603,100 86.603,200 173.205,150 "
   id="polygon23"
   style="opacity:0.07999998;stroke:#ffffff;stroke-miterlimit:10" />
	<polygon
   stroke-miterlimit="10"
   enable-background="new    "
   points="86.603,0 86.603,100 173.205,50 "
   id="polygon25"
   style="opacity:0.07999998;stroke:#ffffff;stroke-miterlimit:10" />
</g>
<path
   style="stroke-width:0.21186441;fill:#00ccff"
   d="m 87.716835,181.75716 v -16.27333 l 13.188565,-7.60667 c 7.25371,-4.18367 13.499,-7.78674 13.87843,-8.00684 l 0.68987,-0.40017 -0.0543,16.34691 -0.0543,16.34692 -13.73629,7.93326 c -7.554955,4.36329 -13.775825,7.93326 -13.824145,7.93326 -0.0483,0 -0.0879,-7.323 -0.0879,-16.27334 z"
   id="path37"
   inkscape:connector-curvature="0" /><path
   style="stroke-width:0.21186441;fill:#00aad4"
   d="m 116.27279,48.501892 -28.541495,-16.467161 -0.007,-15.960452 c -0.004,-9.188707 0.0724,-15.930488 0.18052,-15.88983 0.87268,0.328262 84.512275,48.821441 84.394635,48.930943 -0.15426,0.143591 -27.36742,15.868978 -27.4443,15.858958 -0.0223,-0.003 -12.8843,-7.41552 -28.58213,-16.472458 z"
   id="path43"
   inkscape:connector-curvature="0" /><path
   style="stroke-width:0.21186441;fill:#00ccff"
   d="m 102.08019,107.08687 c -7.539775,-4.34011 -13.708925,-7.93879 -13.709215,-7.99706 -3e-4,-0.0583 4.50018,-2.69459 10.00105,-5.85851 8.076505,-4.64534 73.990245,-42.665654 74.567275,-43.011838 0.0874,-0.05243 0.15889,7.087868 0.15889,15.867338 v 15.96266 l -24.93677,14.39942 c -29.02392,16.75949 -32.10815,18.53106 -32.25979,18.52994 -0.062,-4.2e-4 -6.28166,-3.55184 -13.82144,-7.89195 z"
   id="path47"
   inkscape:connector-curvature="0" /><path
   style="stroke-width:0.21186441;fill:#00ccff"
   d="m 87.716835,115.33239 c 0,-13.00646 0.0519,-16.00528 0.27834,-16.09218 0.15308,-0.0588 0.96139,0.30969 1.79625,0.81876 1.25178,0.7633 21.707065,12.56597 25.083095,14.47292 l 0.99242,0.56057 -12.83726,7.41182 c -7.060505,4.0765 -13.394275,7.72719 -14.075055,8.11264 l -1.23779,0.70083 z"
   id="path55"
   inkscape:connector-curvature="0" /><path
   style="stroke-width:0.21186441;fill:#00ccff"
   d="m 87.720915,148.94343 0.004,-16.2731 12.855055,-7.41525 c 7.07028,-4.07839 13.31315,-7.67937 13.87304,-8.00217 L 115.471,116.666 v 16.28532 16.28533 l -13.71822,7.90605 c -7.545025,4.34832 -13.789725,7.94379 -13.877115,7.98993 -0.0874,0.0461 -0.15707,-7.239 -0.15483,-16.1892 z"
   id="path59"
   inkscape:connector-curvature="0" /><text
   xml:space="preserve"
   style="font-style:normal;font-weight:normal;font-size:85.33333588px;line-height:1.25;font-family:sans-serif;letter-spacing:0px;word-spacing:0px;fill:#ffffff;fill-opacity:1;stroke:none"
   x="395"
   y="116.8"
   id="text27"><tspan
     sodipodi:role="line"
     x="395"
     y="116.8"
     id="tspan33"
     style="font-style:normal;font-variant:normal;font-weight:normal;font-stretch:normal;font-size:48px;font-family:'ROG Fonts';-inkscape-font-specification:'ROG Fonts';text-align:center;text-anchor:middle">PROVISENSE</tspan></text>





</svg>